<mxfile host="app.diagrams.net" modified="2021-08-13T10:08:17.196Z" agent="5.0 (Windows NT 10.0; Win64; x64) AppleWebKit/537.36 (KHTML, like Gecko) Chrome/92.0.4515.131 Safari/537.36" etag="3qXaz_nP-jxX8epNZty6" version="14.9.6" type="github">
  <diagram id="mZfhixNXZOIVuUxZR6Ya" name="第 1 页">
    <mxGraphModel dx="981" dy="526" grid="1" gridSize="10" guides="1" tooltips="1" connect="1" arrows="1" fold="1" page="1" pageScale="1" pageWidth="827" pageHeight="1169" math="0" shadow="0">
      <root>
        <mxCell id="0" />
        <mxCell id="1" parent="0" />
        <mxCell id="lOgmBhLKBQTDchqgfmT8-29" style="edgeStyle=orthogonalEdgeStyle;rounded=0;orthogonalLoop=1;jettySize=auto;html=1;exitX=0.665;exitY=-0.001;exitDx=0;exitDy=0;startArrow=classic;startFill=1;endArrow=none;endFill=0;exitPerimeter=0;entryX=0.443;entryY=0.974;entryDx=0;entryDy=0;entryPerimeter=0;" edge="1" parent="1" source="lOgmBhLKBQTDchqgfmT8-13" target="lOgmBhLKBQTDchqgfmT8-16">
          <mxGeometry relative="1" as="geometry">
            <mxPoint x="439" y="182" as="targetPoint" />
          </mxGeometry>
        </mxCell>
        <mxCell id="lOgmBhLKBQTDchqgfmT8-30" value="运维操作" style="edgeLabel;html=1;align=center;verticalAlign=middle;resizable=0;points=[];" vertex="1" connectable="0" parent="lOgmBhLKBQTDchqgfmT8-29">
          <mxGeometry x="0.3035" relative="1" as="geometry">
            <mxPoint as="offset" />
          </mxGeometry>
        </mxCell>
        <mxCell id="lOgmBhLKBQTDchqgfmT8-13" value="&lt;font style=&quot;font-size: 14px&quot;&gt;azkaban&lt;/font&gt;" style="rounded=1;whiteSpace=wrap;html=1;horizontal=1;align=left;verticalAlign=top;dashed=1;" vertex="1" parent="1">
          <mxGeometry x="180" y="300" width="390" height="100" as="geometry" />
        </mxCell>
        <mxCell id="lOgmBhLKBQTDchqgfmT8-2" value="&lt;font style=&quot;font-size: 10px;&quot;&gt;azkaban-hz8&lt;/font&gt;" style="rounded=1;whiteSpace=wrap;html=1;fontSize=10;" vertex="1" parent="1">
          <mxGeometry x="210" y="325" width="100" height="50" as="geometry" />
        </mxCell>
        <mxCell id="lOgmBhLKBQTDchqgfmT8-25" style="edgeStyle=orthogonalEdgeStyle;rounded=0;orthogonalLoop=1;jettySize=auto;html=1;exitX=0.471;exitY=1.049;exitDx=0;exitDy=0;startArrow=none;startFill=0;endArrow=classic;endFill=1;exitPerimeter=0;" edge="1" parent="1" source="lOgmBhLKBQTDchqgfmT8-6">
          <mxGeometry relative="1" as="geometry">
            <mxPoint x="262" y="300" as="targetPoint" />
            <Array as="points">
              <mxPoint x="262" y="246" />
              <mxPoint x="262" y="300" />
            </Array>
          </mxGeometry>
        </mxCell>
        <mxCell id="lOgmBhLKBQTDchqgfmT8-43" value="&lt;span style=&quot;font-size: 11px&quot;&gt;提交任务&lt;/span&gt;" style="edgeLabel;html=1;align=center;verticalAlign=middle;resizable=0;points=[];fontSize=10;" vertex="1" connectable="0" parent="lOgmBhLKBQTDchqgfmT8-25">
          <mxGeometry x="-0.1777" relative="1" as="geometry">
            <mxPoint as="offset" />
          </mxGeometry>
        </mxCell>
        <mxCell id="lOgmBhLKBQTDchqgfmT8-6" value="猛犸平台" style="rounded=0;whiteSpace=wrap;html=1;" vertex="1" parent="1">
          <mxGeometry x="210" y="180" width="110" height="41" as="geometry" />
        </mxCell>
        <mxCell id="lOgmBhLKBQTDchqgfmT8-22" style="edgeStyle=orthogonalEdgeStyle;rounded=0;orthogonalLoop=1;jettySize=auto;html=1;startArrow=classic;startFill=1;endArrow=classic;endFill=1;entryX=0.5;entryY=1;entryDx=0;entryDy=0;" edge="1" parent="1" target="lOgmBhLKBQTDchqgfmT8-13">
          <mxGeometry relative="1" as="geometry">
            <mxPoint x="375" y="460" as="sourcePoint" />
            <mxPoint x="570" y="350" as="targetPoint" />
          </mxGeometry>
        </mxCell>
        <mxCell id="lOgmBhLKBQTDchqgfmT8-48" style="edgeStyle=orthogonalEdgeStyle;rounded=0;orthogonalLoop=1;jettySize=auto;html=1;exitX=1;exitY=0.5;exitDx=0;exitDy=0;entryX=1;entryY=0.5;entryDx=0;entryDy=0;fontSize=10;startArrow=none;startFill=0;endArrow=classic;endFill=1;" edge="1" parent="1" source="lOgmBhLKBQTDchqgfmT8-14" target="lOgmBhLKBQTDchqgfmT8-16">
          <mxGeometry relative="1" as="geometry">
            <Array as="points">
              <mxPoint x="610" y="490" />
              <mxPoint x="610" y="201" />
              <mxPoint x="501" y="201" />
            </Array>
          </mxGeometry>
        </mxCell>
        <mxCell id="lOgmBhLKBQTDchqgfmT8-49" value="获取信息" style="edgeLabel;html=1;align=center;verticalAlign=middle;resizable=0;points=[];fontSize=10;" vertex="1" connectable="0" parent="lOgmBhLKBQTDchqgfmT8-48">
          <mxGeometry x="-0.0518" y="3" relative="1" as="geometry">
            <mxPoint x="13" y="-13" as="offset" />
          </mxGeometry>
        </mxCell>
        <mxCell id="lOgmBhLKBQTDchqgfmT8-14" value="作业管理服务" style="rounded=0;whiteSpace=wrap;html=1;horizontal=1;verticalAlign=middle;" vertex="1" parent="1">
          <mxGeometry x="180" y="460" width="390" height="60" as="geometry" />
        </mxCell>
        <mxCell id="lOgmBhLKBQTDchqgfmT8-16" value="任务运维" style="rounded=0;whiteSpace=wrap;html=1;" vertex="1" parent="1">
          <mxGeometry x="391" y="180" width="110" height="41" as="geometry" />
        </mxCell>
        <mxCell id="lOgmBhLKBQTDchqgfmT8-27" value="azkaban-hz9" style="rounded=1;whiteSpace=wrap;html=1;fontSize=10;" vertex="1" parent="1">
          <mxGeometry x="330" y="325" width="100" height="50" as="geometry" />
        </mxCell>
        <mxCell id="lOgmBhLKBQTDchqgfmT8-28" value="azkaban-hz11" style="rounded=1;whiteSpace=wrap;html=1;fontSize=10;" vertex="1" parent="1">
          <mxGeometry x="450" y="325" width="100" height="50" as="geometry" />
        </mxCell>
        <mxCell id="lOgmBhLKBQTDchqgfmT8-33" value="Nginx" style="rounded=0;whiteSpace=wrap;html=1;align=center;verticalAlign=middle;" vertex="1" parent="1">
          <mxGeometry x="770" y="150" width="260" height="36" as="geometry" />
        </mxCell>
        <mxCell id="lOgmBhLKBQTDchqgfmT8-34" value="API" style="rounded=0;whiteSpace=wrap;html=1;align=center;verticalAlign=middle;" vertex="1" parent="1">
          <mxGeometry x="770" y="200" width="80" height="30" as="geometry" />
        </mxCell>
        <mxCell id="lOgmBhLKBQTDchqgfmT8-35" value="Service" style="rounded=0;whiteSpace=wrap;html=1;align=center;verticalAlign=middle;" vertex="1" parent="1">
          <mxGeometry x="770" y="250" width="80" height="30" as="geometry" />
        </mxCell>
        <mxCell id="lOgmBhLKBQTDchqgfmT8-37" value="Database" style="rounded=0;whiteSpace=wrap;html=1;align=center;verticalAlign=middle;" vertex="1" parent="1">
          <mxGeometry x="770" y="300" width="260" height="36" as="geometry" />
        </mxCell>
        <mxCell id="lOgmBhLKBQTDchqgfmT8-38" value="API" style="rounded=0;whiteSpace=wrap;html=1;align=center;verticalAlign=middle;" vertex="1" parent="1">
          <mxGeometry x="860" y="200" width="80" height="30" as="geometry" />
        </mxCell>
        <mxCell id="lOgmBhLKBQTDchqgfmT8-39" value="Service" style="rounded=0;whiteSpace=wrap;html=1;align=center;verticalAlign=middle;" vertex="1" parent="1">
          <mxGeometry x="860" y="250" width="80" height="30" as="geometry" />
        </mxCell>
        <mxCell id="lOgmBhLKBQTDchqgfmT8-40" value="API" style="rounded=0;whiteSpace=wrap;html=1;align=center;verticalAlign=middle;" vertex="1" parent="1">
          <mxGeometry x="950" y="200" width="80" height="30" as="geometry" />
        </mxCell>
        <mxCell id="lOgmBhLKBQTDchqgfmT8-41" value="Service" style="rounded=0;whiteSpace=wrap;html=1;align=center;verticalAlign=middle;" vertex="1" parent="1">
          <mxGeometry x="950" y="250" width="80" height="30" as="geometry" />
        </mxCell>
        <mxCell id="lOgmBhLKBQTDchqgfmT8-45" value="&lt;span style=&quot;font-size: 12px&quot;&gt;读取/更新&lt;/span&gt;" style="text;html=1;align=center;verticalAlign=middle;resizable=0;points=[];autosize=1;strokeColor=none;fontSize=10;" vertex="1" parent="1">
          <mxGeometry x="379" y="430" width="70" height="20" as="geometry" />
        </mxCell>
      </root>
    </mxGraphModel>
  </diagram>
</mxfile>
